# Alias OBJ Model File
# Exported from SketchUp, (c) 2000-2012 Trimble Navigation Limited
# File units = meters

mtllib audifono.mtl

g Mesh1 Model

usemtl FrontColor
v 2.53333 8.52248 -1.53785
vt -99.7373 60.5454
vn 0 -1 -0
v 2.53591 8.52248 -1.53751
vt -99.8392 60.532
v 2.53833 8.52248 -1.53651
vt -99.9341 60.4927
v 2.5404 8.52248 -1.53492
vt -100.016 60.4301
v 2.54199 8.52248 -1.53285
vt -100.078 60.3485
v 2.54299 8.52248 -1.53044
vt -100.118 60.2536
v 2.54333 8.52248 -1.52785
vt -100.131 60.1517
v 2.54299 8.52248 -1.52526
vt -100.118 60.0498
v 2.54199 8.52248 -1.52285
vt -100.078 59.9548
v 2.5404 8.52248 -1.52078
vt -100.016 59.8733
v 2.53833 8.52248 -1.51919
vt -99.9341 59.8107
v 2.53591 8.52248 -1.51819
vt -99.8392 59.7714
v 2.53333 8.52248 -1.51785
vt -99.7373 59.758
v 2.53074 8.52248 -1.51819
vt -99.6354 59.7714
v 2.52833 8.52248 -1.51919
vt -99.5404 59.8107
v 2.52626 8.52248 -1.52078
vt -99.4589 59.8733
v 2.52467 8.52248 -1.52285
vt -99.3963 59.9548
v 2.52367 8.52248 -1.52526
vt -99.357 60.0498
v 2.52333 8.52248 -1.52785
vt -99.3436 60.1517
v 2.52367 8.52248 -1.53044
vt -99.357 60.2536
v 2.52467 8.52248 -1.53285
vt -99.3963 60.3485
v 2.52626 8.52248 -1.53492
vt -99.4589 60.4301
v 2.52833 8.52248 -1.53651
vt -99.5404 60.4927
v 2.53074 8.52248 -1.53751
vt -99.6354 60.532
f 1/1/1 2/2/1 3/3/1 4/4/1 5/5/1 6/6/1 7/7/1 8/8/1 9/9/1 10/10/1 11/11/1 12/12/1 13/13/1 14/14/1 15/15/1 16/16/1 17/17/1 18/18/1 19/19/1 20/20/1 21/21/1 22/22/1 23/23/1 24/24/1 

g Mesh2 Model

usemtl Color_A06
v 93.6062 2.43049 -47.4631
vt -4048.7 95.6884
vn -0.056832 -0.454766 -0.888796
v 92.6954 2.43049 -47.2128
vt -4011.51 95.6884
vn -0.405344 -0.454766 -0.793022
v 92.6954 23.4621 -47.2128
vt -4011.51 923.706
vn -0.455131 -5.04893e-19 -0.890425
v 92.6954 30.9536 -47.2128
vt -4011.51 1218.64
v 92.6954 33.8481 -47.2128
vt -4011.51 1332.6
vn -0.405344 0.454766 -0.793022
v 93.6062 33.8481 -47.4631
vt -4048.7 1332.6
vn -0.056832 0.454766 -0.888796
f 25/25/2 26/26/3 27/27/4 28/28/4 29/29/5 30/30/6 

usemtl FrontColor
vt -3685.28 1868.62
v 94.5415 2.43049 -47.3308
vt -3722.1 1863.42
vn 0.30104 -0.454766 -0.83819
v 95.3472 2.43049 -46.8378
vt -3753.82 1844.01
vn 0.609333 -0.454766 -0.649539
v 95.8906 2.43049 -46.0652
vt -3775.22 1813.59
vn 0.817272 -0.454766 -0.353913
v 96.0822 2.43049 -45.1403
vt -3782.77 1777.18
vn 0.890611 -0.454766 3.70136e-13
v 95.8906 2.43049 -44.2154
vt -3775.22 1740.76
vn 0.817272 -0.454766 0.353913
v 95.3472 2.43049 -43.4428
vt -3753.82 1710.35
vn 0.609333 -0.454766 0.649539
v 94.5415 2.43049 -42.9498
vt -3722.1 1690.94
vn 0.30104 -0.454766 0.83819
v 93.6062 2.43049 -42.8175
vt -3685.28 1685.73
vn -0.056832 -0.454766 0.888796
v 92.6954 2.43049 -43.0678
vt -3649.42 1695.58
vn -0.405344 -0.454766 0.793022
v 91.959 2.43049 -43.6594
vt -3620.43 1718.87
vn -0.788642 -0.484918 0.378018
v 91.959 2.43049 -46.6212
vt -3620.43 1835.48
vn -0.788642 -0.484918 -0.378018
vt -3649.42 1858.77
f 25/31/2 31/32/7 32/33/8 33/34/9 34/35/10 35/36/11 36/37/12 37/38/13 38/39/14 39/40/15 40/41/16 41/42/17 26/43/3 

usemtl Color_A06
vt -3424.53 95.6884
vt -3387.35 95.6884
vt -3387.35 1332.6
v 94.5415 33.8481 -47.3308
vt -3424.53 1332.6
vn 0.30104 0.454766 -0.83819
f 31/44/7 25/45/2 30/46/6 42/47/18 

v 94.5415 33.8481 -42.9498
vt 3722.1 1690.94
vn 0.30104 0.454766 0.83819
v 95.3472 33.8481 -43.4428
vt 3753.82 1710.35
vn 0.609333 0.454766 0.649539
v 95.8906 33.8481 -44.2154
vt 3775.22 1740.76
vn 0.817272 0.454766 0.353913
v 96.0822 33.8481 -45.1403
vt 3782.77 1777.18
vn 0.890611 0.454766 3.70136e-13
v 95.8906 33.8481 -46.0652
vt 3775.22 1813.59
vn 0.817272 0.454766 -0.353913
v 95.3472 33.8481 -46.8378
vt 3753.82 1844.01
vn 0.609333 0.454766 -0.649539
vt 3722.1 1863.42
vt 3685.28 1868.62
vt 3649.42 1858.77
v 91.959 33.8481 -46.6212
vt 3620.43 1835.48
vn -0.788642 0.484918 -0.378018
v 91.959 33.8481 -43.6594
vt 3620.43 1718.87
vn -0.788642 0.484918 0.378018
v 92.6954 33.8481 -43.0678
vt 3649.42 1695.58
vn -0.405344 0.454766 0.793022
v 93.6062 33.8481 -42.8175
vt 3685.28 1685.73
vn -0.056832 0.454766 0.888796
f 43/48/19 44/49/20 45/50/21 46/51/22 47/52/23 48/53/24 42/54/18 30/55/6 29/56/5 49/57/25 50/58/26 51/59/27 52/60/28 

vt 4057.45 95.6884
vt 4094.64 95.6884
vt 4094.64 1332.6
vt 4057.45 1332.6
f 37/61/13 36/62/12 44/63/20 43/64/19 

vt 3558.59 95.6884
vt 3595.78 95.6884
vt 3595.78 1332.6
vt 3558.59 1332.6
f 36/65/12 35/66/11 45/67/21 44/68/20 

vt 2470.59 95.6884
vt 2507.78 95.6884
vt 2507.78 1332.6
vt 2470.59 1332.6
f 35/69/11 34/70/10 46/71/22 45/72/21 

vt 972.635 95.6884
vt 1009.82 95.6884
vt 1009.82 1332.6
vt 972.635 1332.6
f 34/73/10 33/74/9 47/75/23 46/76/22 

vt -688.569 95.6884
vt -651.381 95.6884
vt -651.381 1332.6
vt -688.569 1332.6
f 33/77/9 32/78/8 48/79/24 47/80/23 

vt -2239.43 95.6884
vt -2202.24 95.6884
vt -2202.24 1332.6
vt -2239.43 1332.6
f 32/81/8 31/82/7 42/83/18 48/84/24 

vt 3885.01 95.6884
vt 3922.19 95.6884
vt 3922.19 1332.6
vt 3885.01 1332.6
f 38/85/14 37/86/13 43/87/19 52/88/28 

vt 3069.67 95.6884
vt 3106.85 95.6884
vt 3106.85 1332.6
vt 3069.67 1332.6
f 39/89/15 38/90/14 52/91/28 51/92/27 

vt 1745.71 95.6884
vt 1782.89 95.6884
vt 1782.89 1332.6
vt 1745.71 1332.6
f 40/93/16 39/94/15 51/95/27 50/96/26 

vt -1718.87 1332.6
vt -1835.48 1332.6
vt -1835.48 95.6884
vt -1718.87 95.6884
f 50/97/26 49/98/25 41/99/17 40/100/16 

vt -4009.13 95.6884
vt -3971.94 95.6884
vt -3971.94 1332.6
vt -4009.13 1332.6
vt -4009.13 1218.64
vt -4009.13 923.706
f 26/101/3 41/102/17 49/103/25 29/104/5 28/105/4 27/106/4 

usemtl FrontColor
v 95.3668 23.4621 -47.2128
vt 3754.6 923.706
vn 0.483684 -0.37277 0.791892
v 95.3668 30.9536 -47.2128
vt 3754.6 1218.64
vn 0.483684 0.37277 0.791892
vt 3649.42 1218.64
vn 1.68696e-18 0.280505 0.959853
vt 3649.42 923.706
vn -3.37392e-18 -0.280505 0.959853
f 53/107/29 54/108/30 28/109/31 27/110/32 

usemtl Color_A06
v 95.3668 22.8116 -55.9812
vt 2203.98 898.095
vn 0.454862 -0.652602 -0.60598
v 95.3668 24.8098 -57.3981
vt 2259.77 976.765
vn 0.714592 -0.279621 -0.641225
v 95.3668 24.8444 -56.7366
vt 2233.72 978.125
vn 1 0 -0
v 95.3668 25.058 -56.1095
vt 2209.04 986.535
v 95.3668 25.4344 -55.5644
vt 2187.58 1001.36
v 95.3668 25.9452 -55.1426
vt 2170.97 1021.47
v 95.3668 26.5517 -54.876
vt 2160.47 1045.34
v 95.3668 27.2079 -54.7848
vt 2156.88 1071.18
v 95.3668 27.864 -54.876
vt 2160.47 1097.01
v 95.3668 28.4705 -55.1426
vt 2170.97 1120.88
v 95.3668 28.9813 -55.5644
vt 2187.58 1140.99
v 95.3668 29.3577 -56.1095
vt 2209.04 1155.82
v 95.3668 29.5713 -56.7366
vt 2233.72 1164.23
v 95.3668 29.6059 -57.3981
vt 2259.77 1165.59
vn 0.714592 0.279621 -0.641225
v 95.3668 31.6041 -55.9812
vt 2203.98 1244.26
vn 0.454862 0.652602 -0.60598
v 95.3668 32.8693 -53.8836
vt 2121.4 1294.07
vn 0.454862 0.840422 -0.294604
v 95.3668 33.1907 -51.4551
vt 2025.79 1306.72
vn 0.454862 0.888121 0.065889
v 95.3668 32.5145 -49.1007
vt 1933.1 1280.1
vn 0.454862 0.787748 0.415397
vt 1858.77 1218.64
vt 1858.77 923.706
v 95.3668 21.9012 -49.1007
vt 1933.1 862.252
vn 0.454862 -0.787748 0.415397
v 95.3668 21.225 -51.4551
vt 2025.79 835.631
vn 0.454862 -0.888121 0.065889
v 95.3668 21.5464 -53.8836
vt 2121.4 848.282
vn 0.454862 -0.840422 -0.294604
f 55/111/33 56/112/34 57/113/35 58/114/35 59/115/35 60/116/35 61/117/35 62/118/35 63/119/35 64/120/35 65/121/35 66/122/35 67/123/35 68/124/36 69/125/37 70/126/38 71/127/39 72/128/40 54/129/30 53/130/29 73/131/41 74/132/42 75/133/43 

vt -3754.6 2007.47
v 91.5339 22.8116 -55.9812
vt -3603.7 2007.47
vn -0.454862 -0.652602 -0.60598
v 91.5339 24.8098 -57.3981
vt -3603.7 2103.92
vn -0.454862 -0.355976 -0.816322
vt -3754.6 2103.92
f 55/134/33 76/135/44 77/136/45 56/137/34 

vt -3603.7 2351.11
vt -3754.6 2351.11
vt -3754.6 2254.66
v 91.5339 21.5464 -53.8836
vt -3603.7 2254.66
vn -0.454862 -0.840422 -0.294604
f 76/138/44 55/139/33 75/140/43 78/141/46 

vt -3603.7 2214.34
vt -3754.6 2214.34
vt -3754.6 2117.9
v 91.5339 21.225 -51.4551
vt -3603.7 2117.9
vn -0.454862 -0.888121 0.065889
f 78/142/46 75/143/43 74/144/42 79/145/47 

vt 3603.7 -1716.43
vt 3754.6 -1716.43
vt 3754.6 -1619.99
v 91.5339 21.9012 -49.1007
vt 3603.7 -1619.99
vn -0.454862 -0.787748 0.415397
f 79/146/47 74/147/42 73/148/41 80/149/48 

vt 3603.7 -940.385
vt 3754.6 -940.385
vt 3754.6 -843.943
vt 3649.42 -843.943
v 91.5339 23.4621 -47.2128
vt 3603.7 -843.943
vn -0.483684 -0.37277 0.791892
f 80/150/48 73/151/41 53/152/29 27/153/32 81/154/49 

v 91.5339 30.9536 -47.2128
vt 3603.7 1218.64
vn -0.483684 0.37277 0.791892
vt 3603.7 923.706
f 27/110/32 28/109/31 82/155/50 81/156/49 

vt 3649.42 2209.07
vt 3754.6 2209.07
vt 3754.6 2305.51
v 91.5339 32.5145 -49.1007
vt 3603.7 2305.51
vn -0.454862 0.787748 0.415397
vt 3603.7 2209.07
f 28/157/31 54/158/30 72/159/40 83/160/51 82/161/50 

vt 3603.7 2211.34
vt 3754.6 2211.34
vt 3754.6 2307.78
v 91.5339 33.1907 -51.4551
vt 3603.7 2307.78
vn -0.454862 0.888121 0.065889
f 83/162/51 72/163/40 71/164/39 84/165/52 

vt -3603.7 -1836.88
vt -3754.6 -1836.88
vt -3754.6 -1933.32
v 91.5339 32.8693 -53.8836
vt -3603.7 -1933.32
vn -0.454862 0.840422 -0.294604
f 84/166/52 71/167/39 70/168/38 85/169/53 

vt -3603.7 -1148.13
vt -3754.6 -1148.13
vt -3754.6 -1244.57
v 91.5339 31.6041 -55.9812
vt -3603.7 -1244.57
vn -0.454862 0.652602 -0.60598
f 85/170/53 70/171/38 69/172/37 86/173/54 

vt -3754.6 -356.353
v 91.5339 29.6059 -57.3981
vt -3603.7 -356.353
vn -0.454862 0.355976 -0.816322
vt -3603.7 -259.911
vt -3754.6 -259.911
f 68/174/36 87/175/55 86/176/54 69/177/37 

v 95.3668 27.2079 -57.8983
vt -3754.6 583.238
vn 0.454862 -4.36192e-14 -0.890562
v 91.5339 27.2079 -57.8983
vt -3603.7 583.238
vn -0.454862 -4.36192e-14 -0.890562
vt -3603.7 679.68
vt -3754.6 679.68
f 88/178/56 89/179/57 87/180/55 68/181/36 

vt -3754.6 1417.55
vt -3603.7 1417.55
vt -3603.7 1513.99
vt -3754.6 1513.99
f 56/182/34 77/183/45 89/184/57 88/185/56 

vt -2121.4 1294.07
vt -2203.98 1244.26
vt -2259.77 1165.59
vt -2279.46 1071.18
vt -2259.77 976.765
vt -2203.98 898.095
vt -2121.4 848.282
vt -2025.79 835.631
vt -1933.1 862.252
vt -1858.77 923.706
vt -1858.77 1218.64
vt -1933.1 1280.1
vt -2025.79 1306.72
f 85/186/53 86/187/54 87/188/55 89/189/57 77/190/45 76/191/44 78/192/46 79/193/47 80/194/48 81/195/49 82/196/50 83/197/51 84/198/52 

usemtl Color_M09
vt 2279.46 1071.18
f 88/199/56 68/124/36 67/123/35 66/122/35 65/121/35 64/120/35 63/119/35 62/118/35 61/117/35 60/116/35 59/115/35 58/114/35 57/113/35 56/112/34 

